# xmcd CD database file
#
# Track frame offsets:
#	150
#	18802
#	38330
#	54740
#	69028
#	86407
#	106451
#
# Disc length: 1691 seconds
#
# Revision: 1
# Processed by: cddbd v1.5.2PL0 Copyright (c) Steve Scherf et al.
# Submitted via: CDex 1.51
#
DISCID=45069907
DTITLE=Sarah Darling - Angels and Devils [CD 1)
DYEAR=2011
DGENRE=Country
TTITLE0=Thank You
TTITLE1=Something To Do With Your Hands
TTITLE2=The Boy Never Stays
TTITLE3=Toxic
TTITLE4=Bad Habit
TTITLE5=Angels And Devils
TTITLE6=With Or Without You
EXTD=YEAR: 2011
EXTT0=
EXTT1=
EXTT2=
EXTT3=
EXTT4=
EXTT5=
EXTT6=
PLAYORDER=
